Frozen (2010) (1080P)       



Verenigde Staten
Thriller / Drama
94 minuten

geregisseerd door Adam Green
met Kevin Zegers, Shawn Ashmore en Emma Bell

Een snowboarder, zijn beste vriend en zijn vriendin, raken gestrand op een berg ergens in Nieuw-Engeland. Hulp hoeven ze niet te verwachten; het gebied is namelijk tijdelijk gesloten. Ze zullen nu moeten vechten om niet ten prooi te vallen aan een groep hongerige wolven, maar ook tegen de kou..


English

Three skiers are stranded on a chairlift and forced to make life-or-death choices that prove more perilous than staying put and freezing to death



Spotinformatie 
Categorie : Beeld 
Formaat : x264HD 
Bron : Retail
 Subs : Dutch, English
Compressie: x264 MKV
Audio: Engels 5.1 DTS & 5.1 DD
Subs: Engels & Custom NL
Vertaling: SRT
Bewerking: Bradje

Format                           : Matroska
File size                        : 7.53 GiB
Duration                         : 1h 33mn
Overall bit rate                 : 11.6 Mbps
Encoded date                     : UTC 2010-09-15 08:25:02
Writing application              : mkvmerge v3.3.0 ('Language') built on Mar 24 2010 14:59:24
Writing library                  : libebml v0.8.0 + libmatroska v0.9.0

Video
ID                               : 1
Format                           : AVC
Format/Info                      : Advanced Video Codec
Format profile                   : High@L4.1
Format settings, CABAC           : Yes
Format settings, ReFrames        : 5 frames
Muxing mode                      : Container profile=Unknown@4.1
Codec ID                         : V_MPEG4/ISO/AVC
Duration                         : 1h 33mn
Bit rate                         : 9 414 Kbps
Width                            : 1 920 pixels
Height                           : 800 pixels
Display aspect ratio             : 2.40:1
Frame rate                       : 23.976 fps
Color space                      : YUV
Chroma subsampling               : 4:2:0
Bit depth                        : 8 bits
Scan type                        : Progressive
Bits/(Pixel*Frame)               : 0.256
Stream size                      : 5.98 GiB (79%)
Title                            : x264
Writing library                  : x264 core 104 r1713 c276662
Encoding settings                : cabac=1 / ref=5 / deblock=1:0:0 / analyse=0x3:0x133 / me=umh / subme=7 / psy=1 / psy_rd=1.00:0.00 / mixed_ref=1 / me_range=16 / chroma_me=1 / trellis=1 / 8x8dct=1 / cqm=0 / deadzone=21,11 / fast_pskip=1 / chroma_qp_offset=-2 / threads=6 / sliced_threads=0 / nr=0 / decimate=1 / interlaced=0 / constrained_intra=0 / bframes=3 / b_pyramid=2 / b_adapt=2 / b_bias=0 / direct=3 / weightb=1 / open_gop=0 / weightp=2 / keyint=250 / keyint_min=23 / scenecut=40 / intra_refresh=0 / rc=2pass / mbtree=0 / bitrate=9414 / ratetol=1.0 / qcomp=0.60 / qpmin=10 / qpmax=51 / qpstep=4 / cplxblur=20.0 / qblur=0.5 / ip_ratio=1.40 / pb_ratio=1.30 / aq=1:1.00
Language                         : English

Audio #1
ID                               : 2
Format                           : AC-3
Format/Info                      : Audio Coding 3
Mode extension                   : CM (complete main)
Codec ID                         : A_AC3
Duration                         : 1h 33mn
Bit rate mode                    : Constant
Bit rate                         : 640 Kbps
Channel(s)                       : 6 channels
Channel positions                : Front: L C R, Side: L R, LFE
Sampling rate                    : 48.0 KHz
Bit depth                        : 16 bits
Stream size                      : 427 MiB (6%)
Title                            : AC3
Language                         : English

Audio #2
ID                               : 3
Format                           : DTS
Format/Info                      : Digital Theater Systems
Codec ID                         : A_DTS
Duration                         : 1h 33mn
Bit rate mode                    : Constant
Bit rate                         : 1 510 Kbps
Channel(s)                       : 6 channels
Channel positions                : Front: L C R, Side: L R, LFE
Sampling rate                    : 48.0 KHz
Bit depth                        : 24 bits
Stream size                      : 1 008 MiB (13%)
Title                            : DTS
Language                         : English

Text #1
ID                               : 4
Format                           : UTF-8
Codec ID                         : S_TEXT/UTF8
Codec ID/Info                    : UTF-8 Plain Text
Title                            : Subtitles
Language                         : Dutch

Text #2
ID                               : 5
Format                           : UTF-8
Codec ID                         : S_TEXT/UTF8
Codec ID/Info                    : UTF-8 Plain Text
Title                            : Subtitles
Language                         : English

Menu
00:00:00.000                     : en:Video Start
00:05:00.000                     : en:Chapter 1 - 00 Hr 05 Min
00:10:00.000                     : en:Chapter 2 - 00 Hr 10 Min
00:15:00.000                     : en:Chapter 3 - 00 Hr 15 Min
00:20:00.000                     : en:Chapter 4 - 00 Hr 20 Min
00:25:00.000                     : en:Chapter 5 - 00 Hr 25 Min
00:30:00.000                     : en:Chapter 6 - 00 Hr 30 Min
00:35:00.000                     : en:Chapter 7 - 00 Hr 35 Min
00:40:00.000                     : en:Chapter 8 - 00 Hr 40 Min
00:45:00.000                     : en:Chapter 9 - 00 Hr 45 Min
00:50:00.000                     : en:Chapter 10 - 00 Hr 50 Min
00:55:00.000                     : en:Chapter 11 - 00 Hr 55 Min
01:00:00.000                     : en:Chapter 12 - 01 Hr 00 Min
01:05:00.000                     : en:Chapter 13 - 01 Hr 05 Min
01:10:00.000                     : en:Chapter 14 - 01 Hr 10 Min
01:15:00.000                     : en:Chapter 15 - 01 Hr 15 Min
01:20:00.000                     : en:Chapter 16 - 01 Hr 20 Min
01:25:00.000                     : en:Chapter 17 - 01 Hr 25 Min
01:30:00.000                     : en:Chapter 18 - 01 Hr 30 Min
 

Genre : Drama
Thriller
 
Weblink :  http://www.moviemeter.nl/film/62267
Weblink :  http://www.imdb.com/title/tt1323045 

  
******************************************

Brought to you by 


2Lions Team

meer zien??
Kom dan eens kijken op ons forum 
                     
http://www.2lions-site.nl


2Lions the site to be for all your Dutch MOVIES and more

******************************************


DON T HIT AND RUN Niet gelijk afhaken als de FILM binnen is blijf seeden. 

Don`t quit after you finished the download, but keep seeding


There are fake torrents from uploaders who use our team name.
Those are not ours, or members from our team.
We 2Lions-Team are not responsible for the fake posts on our name

Wij 2Lions-Team zijn niet verantwoordelijk voor die zieke FAKE posten die op onze naam worden gedaan



Please check our site !!!
                    
http://www.2lions-site.nl 
      





 
 
 
